<?xml version="1.0" encoding="UTF-8" standalone="no"?>
<!-- Created with Inkscape (http://www.inkscape.org/) -->

<svg
   xmlns:dc="http://purl.org/dc/elements/1.1/"
   xmlns:cc="http://creativecommons.org/ns#"
   xmlns:rdf="http://www.w3.org/1999/02/22-rdf-syntax-ns#"
   xmlns:svg="http://www.w3.org/2000/svg"
   xmlns="http://www.w3.org/2000/svg"
   xmlns:sodipodi="http://sodipodi.sourceforge.net/DTD/sodipodi-0.dtd"
   xmlns:inkscape="http://www.inkscape.org/namespaces/inkscape"
   width="53.382172mm"
   height="43.689503mm"
   viewBox="0 0 53.382172 43.689503"
   version="1.1"
   id="svg8"
   inkscape:version="0.92.3 (2405546, 2018-03-11)"
   sodipodi:docname="sbseg.svg">
  <defs
     id="defs2" />
  <sodipodi:namedview
     id="base"
     pagecolor="#000000"
     bordercolor="#666666"
     borderopacity="1.0"
     inkscape:pageopacity="0"
     inkscape:pageshadow="2"
     inkscape:zoom="1.4"
     inkscape:cx="-12.620903"
     inkscape:cy="30.552944"
     inkscape:document-units="mm"
     inkscape:current-layer="layer1"
     showgrid="false"
     fit-margin-top="0"
     fit-margin-left="0"
     fit-margin-right="0"
     fit-margin-bottom="0"
     inkscape:window-width="1362"
     inkscape:window-height="729"
     inkscape:window-x="0"
     inkscape:window-y="18"
     inkscape:window-maximized="0" />
  <metadata
     id="metadata5">
    <rdf:RDF>
      <cc:Work
         rdf:about="">
        <dc:format>image/svg+xml</dc:format>
        <dc:type
           rdf:resource="http://purl.org/dc/dcmitype/StillImage" />
        <dc:title></dc:title>
      </cc:Work>
    </rdf:RDF>
  </metadata>
  <g
     inkscape:label="Camada 1"
     inkscape:groupmode="layer"
     id="layer1"
     transform="translate(-35.086948,-67.041524)">
    <path
       style="fill:#ffffff;stroke-width:1"
       d=""
       id="path826"
       inkscape:connector-curvature="0" />
    <path
       style="fill:#ffffff;stroke-width:1"
       d="m 51.065391,107.60916 -5.556949,-3.19106 -0.025,-6.17777 -0.025,-6.177766 -5.184646,-2.83923 -5.184648,-2.83923 -0.0011,-6.35 -0.0011,-6.35 5.178915,-3.09033 c 2.848403,-1.69968 5.356049,-3.19427 5.572549,-3.32129 l 0.39364,-0.23096 4.354509,2.58799 c 2.39499,1.42339 4.7438,2.81598 5.2196,3.09463 l 0.86508,0.50665 5.10392,-3.06604 c 2.80715,-1.68632 5.14605,-3.06705 5.19754,-3.06829 0.0515,-10e-4 2.57426,1.42333 5.60615,3.1657 l 5.51253,3.16794 0.0242,5.86953 0.0242,5.86952 5.16467,2.99054 5.16467,2.99054 v 6.453766 6.45377 l -5.36684,3.11847 -5.36684,3.11847 -0.2635,-0.13553 c -0.34214,-0.17597 -3.74441,-2.01325 -7.35149,-3.96992 l -2.85468,-1.54851 -5.18866,3.0083 c -2.85376,1.65457 -5.24853,3.04045 -5.32171,3.07974 -0.0969,0.052 -1.64444,-0.79648 -5.69,-3.11963 z m 31.75842,-2.04806 4.15969,-2.413 0.002,-5.1109 0.002,-5.110896 -0.1905,0.12192 c -0.10477,0.0671 -2.02882,1.19927 -4.27566,2.516026 l -4.08517,2.39411 v 5.03525 c 0,4.17769 0.0194,5.03058 0.114,5.00787 0.0627,-0.0151 1.98587,-1.11323 4.27371,-2.44038 z m -30.94809,-5.75531 4.03905,-2.32631 v -5.187856 c 0,-2.85332 -0.0143,-5.18785 -0.0319,-5.18785 -0.0175,0 -2.00827,1.10283 -4.42383,2.45073 l -4.39193,2.45073 -0.0218,5.298346 -0.0218,5.29834 0.40659,-0.23491 c 0.22362,-0.1292 2.22415,-1.28175 4.44563,-2.56122 z m 14.55957,-7.460956 c -0.0514,-0.0484 -2.90038,-1.71357 -8.63668,-5.04799 l -0.35984,-0.20916 4.3e-4,5.19388 4.2e-4,5.193876 4.50809,2.47472 4.50809,2.47473 0.0219,-5.00982 c 0.012,-2.755386 -0.007,-5.036996 -0.0423,-5.070236 z m 15.51912,1.77844 c 2.3025,-1.35474 4.18636,-2.49169 4.18636,-2.52656 0,-0.0787 -8.62944,-5.02916 -8.76667,-5.02916 -0.0547,0 -1.02874,0.55328 -2.16455,1.22951 -1.13581,0.67623 -3.01077,1.79114 -4.16658,2.47758 -1.15581,0.68645 -2.07892,1.27062 -2.05137,1.29818 0.11822,0.11822 8.56596,4.997166 8.66597,5.004976 0.0608,0.005 1.99433,-1.09979 4.29684,-2.454526 z m -15.71042,-8.734 -1.2e-4,-5.0165 -3.87338,-2.18142 c -2.13036,-1.19978 -4.11151,-2.31641 -4.40255,-2.4814 l -0.52917,-0.29999 0.003,4.97907 0.003,4.97907 4.33596,2.51625 c 2.38478,1.38394 4.36454,2.51741 4.39946,2.51884 0.0349,0.001 0.0634,-2.25484 0.0634,-5.01392 z m 6.41782,2.13783 3.90795,-2.32833 0.002,-4.97061 0.002,-4.9706 -1.54517,0.89424 c -0.84984,0.49184 -2.83104,1.63695 -4.40266,2.54469 l -2.8575,1.65044 v 5.03432 5.03433 l 0.49287,-0.28007 c 0.27108,-0.15404 2.25145,-1.32782 4.40083,-2.60841 z m -27.161039,-2.27154 v -5.06555 l -4.370522,-2.36395 c -2.403789,-1.30018 -4.404039,-2.37666 -4.445,-2.39218 -0.04234,-0.016 -0.07447,2.14518 -0.07447,5.00824 v 5.03646 l 4.423833,2.42004 c 2.433109,1.33103 4.433359,2.4206 4.444999,2.42127 0.0116,6.7e-4 0.0212,-2.27828 0.0212,-5.06433 z m 5.251689,-8.83016 c 2.37361,-1.27104 4.31424,-2.33161 4.31252,-2.35681 -0.005,-0.0751 -8.750119,-5.21136 -8.854379,-5.2005 -0.12441,0.013 -8.74827,5.1396 -8.751049,5.20225 -0.0047,0.10548 8.685429,4.7336 8.826739,4.70089 0.0828,-0.0192 2.092559,-1.07478 4.466169,-2.34583 z"
       id="path839"
       inkscape:connector-curvature="0" />
  </g>
</svg>
